<svg version="1.1" id="Layer_1" xmlns="http://www.w3.org/2000/svg" xmlns:xlink="http://www.w3.org/1999/xlink" x="0px" y="0px"
	 width="100%" viewBox="0 0 2000 2000" enable-background="new 0 0 2000 2000" xml:space="preserve">
<path fill="#0D0D0F" opacity="1.000000" stroke="none" 
	d="
M928.000000,2001.000000 
	C618.666687,2001.000000 309.833344,2001.000000 1.000000,2001.000000 
	C1.000000,1334.333374 1.000000,667.666687 1.000000,1.000000 
	C667.666687,1.000000 1334.333374,1.000000 2001.000000,1.000000 
	C2001.000000,667.666687 2001.000000,1334.333374 2001.000000,2001.000000 
	C1643.500000,2001.000000 1286.000000,2001.000000 928.000000,2001.000000 
M1037.170166,578.499939 
	C1037.170166,808.210266 1037.170166,1037.920654 1037.170166,1267.446533 
	C1094.352661,1267.446533 1150.737183,1267.446533 1207.679688,1267.446533 
	C1207.679688,1248.501465 1207.679688,1229.943237 1207.679688,1211.385132 
	C1208.486450,1210.765381 1209.293091,1210.145508 1210.099854,1209.525757 
	C1210.994385,1211.327393 1211.520996,1213.473511 1212.837891,1214.879639 
	C1236.329346,1239.962646 1263.917847,1259.032593 1296.618408,1269.951538 
	C1346.825439,1286.716187 1397.554565,1286.498535 1447.919312,1271.324219 
	C1511.412720,1252.194458 1556.238770,1210.075317 1588.105957,1153.187500 
	C1605.222656,1122.630981 1614.660767,1089.519287 1618.380249,1054.755249 
	C1622.075317,1020.220459 1620.823608,985.913696 1613.329956,951.926514 
	C1603.294556,906.411438 1582.292725,866.591797 1551.125366,832.018616 
	C1524.552002,802.541626 1493.074951,780.348572 1455.361084,767.479187 
	C1415.333618,753.820312 1374.285645,751.321472 1332.618652,757.100403 
	C1287.218384,763.397095 1247.156738,781.298462 1213.427856,812.702759 
	C1212.304321,813.748840 1211.036499,814.639954 1209.113403,816.183044 
	C1209.113403,687.392578 1209.113403,559.657104 1209.113403,431.798004 
	C1151.667114,431.798004 1094.585327,431.798004 1037.170166,431.798004 
	C1037.170166,480.566315 1037.170166,529.033081 1037.170166,578.499939 
M739.359314,1063.130005 
	C747.116394,1066.082764 754.997192,1068.750366 762.604614,1072.048218 
	C778.110596,1078.770386 793.849670,1085.111084 808.771057,1092.977661 
	C821.201965,1099.531128 824.840515,1111.494629 822.897766,1125.039673 
	C821.055115,1137.886475 813.227051,1145.958862 801.302490,1150.042236 
	C786.055664,1155.263062 770.374084,1156.351196 754.505249,1153.497192 
	C738.674194,1150.650146 723.902527,1144.698242 709.557068,1137.604614 
	C687.174927,1126.536621 665.235657,1114.757080 646.412720,1097.378662 
	C622.892761,1136.929565 599.648193,1176.017334 576.526245,1214.899170 
	C594.252747,1231.747070 613.840881,1244.568726 635.884705,1253.838867 
	C672.193848,1269.108154 709.590881,1279.411499 749.150574,1281.405273 
	C776.023071,1282.759766 802.777771,1281.934814 829.469666,1278.897095 
	C860.846436,1275.326172 891.463257,1268.682373 920.150818,1254.923096 
	C954.660950,1238.370972 980.705444,1213.595337 994.284851,1177.157104 
	C1005.647766,1146.666748 1008.004761,1115.128296 1002.673401,1083.225464 
	C997.536255,1052.484863 983.342529,1026.180298 959.136658,1006.278381 
	C935.094055,986.510559 908.335388,971.048584 878.717346,961.026184 
	C858.125305,954.058044 837.256531,947.895386 816.748474,940.697144 
	C807.250305,937.363342 797.932251,933.083191 789.226196,928.035706 
	C778.390259,921.753418 774.196106,911.614441 776.051941,899.075012 
	C777.639343,888.349426 783.785461,881.684570 794.010986,878.695618 
	C797.823975,877.581055 801.730347,876.561768 805.663879,876.119324 
	C839.408691,872.323975 872.064575,877.097656 903.584106,889.439087 
	C915.867310,894.248596 927.811707,899.923279 940.249023,905.351685 
	C958.832153,868.286255 977.556152,830.939819 996.319824,793.514343 
	C995.454895,792.939209 994.935364,792.528748 994.360840,792.220886 
	C963.081360,775.454285 929.230103,766.467346 894.654663,760.124695 
	C854.871643,752.826721 814.832642,752.544739 774.759338,758.004822 
	C738.053345,763.006042 703.458435,773.837646 672.627991,795.046448 
	C651.626099,809.494080 635.063049,827.779236 624.379395,851.089722 
	C613.662109,874.473450 610.574036,899.157776 611.837158,924.624634 
	C613.422058,956.580811 624.642639,984.026062 648.312561,1006.193481 
	C674.781250,1030.982056 705.310608,1049.117432 739.359314,1063.130005 
M516.938110,754.593872 
	C477.049225,752.767761 441.006989,764.223938 408.669159,787.092834 
	C389.837555,800.410400 373.286285,816.391541 359.322510,834.882324 
	C357.804993,836.891785 356.542145,839.093689 355.161163,841.206299 
	C354.782196,841.086426 354.403198,840.966553 354.024231,840.846619 
	C354.024231,817.033447 354.024231,793.220215 354.024231,769.211426 
	C296.332001,769.211426 239.259384,769.211426 182.105743,769.211426 
	C182.105743,935.442993 182.105743,1101.462402 182.105743,1267.493896 
	C239.471725,1267.493896 296.521973,1267.493896 353.870300,1267.493896 
	C353.870300,1265.174316 353.870270,1263.195801 353.870270,1261.217285 
	C353.870209,1177.064575 353.859863,1092.911865 353.902344,1008.759155 
	C353.904327,1004.778076 354.079926,1000.751831 354.681641,996.824280 
	C356.996033,981.718201 363.024414,967.830933 369.154816,953.997498 
	C378.536407,932.827881 394.984283,919.016968 416.158508,911.131714 
	C447.837891,899.334412 479.843689,902.496399 511.145020,912.596313 
	C523.256897,916.504395 534.273560,923.806763 546.090149,929.713196 
	C569.404602,882.386169 593.276978,833.926697 617.153015,785.459656 
	C586.502563,766.301453 553.380005,756.617859 516.938110,754.593872 
M1869.018921,1153.466309 
	C1867.579224,1147.328125 1866.588501,1141.042114 1864.626831,1135.075562 
	C1851.848022,1096.208496 1811.802368,1060.561890 1762.953735,1059.622070 
	C1724.407471,1058.880249 1693.813843,1073.819092 1670.357178,1103.766968 
	C1651.421143,1127.943115 1645.009277,1155.789673 1648.955811,1185.960449 
	C1654.081177,1225.142212 1675.203491,1254.068604 1710.172485,1270.840942 
	C1750.984985,1290.416016 1791.397949,1286.668091 1827.460815,1258.455688 
	C1861.055176,1232.174316 1874.670166,1196.835083 1869.018921,1153.466309 
z"/>
<path fill="#FFFFFF" opacity="1.000000" stroke="none" 
	d="
M1037.170166,577.999878 
	C1037.170166,529.033081 1037.170166,480.566315 1037.170166,431.798004 
	C1094.585327,431.798004 1151.667114,431.798004 1209.113403,431.798004 
	C1209.113403,559.657104 1209.113403,687.392578 1209.113403,816.183044 
	C1211.036499,814.639954 1212.304321,813.748840 1213.427856,812.702759 
	C1247.156738,781.298462 1287.218384,763.397095 1332.618652,757.100403 
	C1374.285645,751.321472 1415.333618,753.820312 1455.361084,767.479187 
	C1493.074951,780.348572 1524.552002,802.541626 1551.125366,832.018616 
	C1582.292725,866.591797 1603.294556,906.411438 1613.329956,951.926514 
	C1620.823608,985.913696 1622.075317,1020.220459 1618.380249,1054.755249 
	C1614.660767,1089.519287 1605.222656,1122.630981 1588.105957,1153.187500 
	C1556.238770,1210.075317 1511.412720,1252.194458 1447.919312,1271.324219 
	C1397.554565,1286.498535 1346.825439,1286.716187 1296.618408,1269.951538 
	C1263.917847,1259.032593 1236.329346,1239.962646 1212.837891,1214.879639 
	C1211.520996,1213.473511 1210.994385,1211.327393 1210.099854,1209.525757 
	C1209.293091,1210.145508 1208.486450,1210.765381 1207.679688,1211.385132 
	C1207.679688,1229.943237 1207.679688,1248.501465 1207.679688,1267.446533 
	C1150.737183,1267.446533 1094.352661,1267.446533 1037.170166,1267.446533 
	C1037.170166,1037.920654 1037.170166,808.210266 1037.170166,577.999878 
M1420.224976,954.285767 
	C1410.802124,939.417053 1398.599487,927.337952 1383.612305,918.129211 
	C1360.143311,903.709106 1334.439819,899.192139 1307.417725,902.079834 
	C1270.307251,906.045654 1241.511963,924.105591 1221.971802,955.800476 
	C1204.082031,984.818115 1201.601929,1016.639160 1208.941895,1049.220093 
	C1216.907593,1084.577148 1237.970947,1110.020142 1270.826904,1125.218384 
	C1294.377563,1136.112183 1319.294800,1137.270630 1344.628540,1133.511108 
	C1361.503418,1131.006714 1377.133911,1125.192871 1391.015503,1115.228027 
	C1417.166626,1096.455566 1432.040283,1070.858032 1436.146729,1039.013794 
	C1439.973389,1009.339355 1436.504883,980.953979 1420.224976,954.285767 
z"/>
<path fill="#FFFFFF" opacity="1.000000" stroke="none" 
	d="
M738.988708,1063.026611 
	C705.310608,1049.117432 674.781250,1030.982056 648.312561,1006.193481 
	C624.642639,984.026062 613.422058,956.580811 611.837158,924.624634 
	C610.574036,899.157776 613.662109,874.473450 624.379395,851.089722 
	C635.063049,827.779236 651.626099,809.494080 672.627991,795.046448 
	C703.458435,773.837646 738.053345,763.006042 774.759338,758.004822 
	C814.832642,752.544739 854.871643,752.826721 894.654663,760.124695 
	C929.230103,766.467346 963.081360,775.454285 994.360840,792.220886 
	C994.935364,792.528748 995.454895,792.939209 996.319824,793.514343 
	C977.556152,830.939819 958.832153,868.286255 940.249023,905.351685 
	C927.811707,899.923279 915.867310,894.248596 903.584106,889.439087 
	C872.064575,877.097656 839.408691,872.323975 805.663879,876.119324 
	C801.730347,876.561768 797.823975,877.581055 794.010986,878.695618 
	C783.785461,881.684570 777.639343,888.349426 776.051941,899.075012 
	C774.196106,911.614441 778.390259,921.753418 789.226196,928.035706 
	C797.932251,933.083191 807.250305,937.363342 816.748474,940.697144 
	C837.256531,947.895386 858.125305,954.058044 878.717346,961.026184 
	C908.335388,971.048584 935.094055,986.510559 959.136658,1006.278381 
	C983.342529,1026.180298 997.536255,1052.484863 1002.673401,1083.225464 
	C1008.004761,1115.128296 1005.647766,1146.666748 994.284851,1177.157104 
	C980.705444,1213.595337 954.660950,1238.370972 920.150818,1254.923096 
	C891.463257,1268.682373 860.846436,1275.326172 829.469666,1278.897095 
	C802.777771,1281.934814 776.023071,1282.759766 749.150574,1281.405273 
	C709.590881,1279.411499 672.193848,1269.108154 635.884705,1253.838867 
	C613.840881,1244.568726 594.252747,1231.747070 576.526245,1214.899170 
	C599.648193,1176.017334 622.892761,1136.929565 646.412720,1097.378662 
	C665.235657,1114.757080 687.174927,1126.536621 709.557068,1137.604614 
	C723.902527,1144.698242 738.674194,1150.650146 754.505249,1153.497192 
	C770.374084,1156.351196 786.055664,1155.263062 801.302490,1150.042236 
	C813.227051,1145.958862 821.055115,1137.886475 822.897766,1125.039673 
	C824.840515,1111.494629 821.201965,1099.531128 808.771057,1092.977661 
	C793.849670,1085.111084 778.110596,1078.770386 762.604614,1072.048218 
	C754.997192,1068.750366 747.116394,1066.082764 738.988708,1063.026611 
z"/>
<path fill="#FFFFFF" opacity="1.000000" stroke="none" 
	d="
M517.403687,754.619507 
	C553.380005,756.617859 586.502563,766.301453 617.153015,785.459656 
	C593.276978,833.926697 569.404602,882.386169 546.090149,929.713196 
	C534.273560,923.806763 523.256897,916.504395 511.145020,912.596313 
	C479.843689,902.496399 447.837891,899.334412 416.158508,911.131714 
	C394.984283,919.016968 378.536407,932.827881 369.154816,953.997498 
	C363.024414,967.830933 356.996033,981.718201 354.681641,996.824280 
	C354.079926,1000.751831 353.904327,1004.778076 353.902344,1008.759155 
	C353.859863,1092.911865 353.870209,1177.064575 353.870270,1261.217285 
	C353.870270,1263.195801 353.870300,1265.174316 353.870300,1267.493896 
	C296.521973,1267.493896 239.471725,1267.493896 182.105743,1267.493896 
	C182.105743,1101.462402 182.105743,935.442993 182.105743,769.211426 
	C239.259384,769.211426 296.332001,769.211426 354.024231,769.211426 
	C354.024231,793.220215 354.024231,817.033447 354.024231,840.846619 
	C354.403198,840.966553 354.782196,841.086426 355.161163,841.206299 
	C356.542145,839.093689 357.804993,836.891785 359.322510,834.882324 
	C373.286285,816.391541 389.837555,800.410400 408.669159,787.092834 
	C441.006989,764.223938 477.049225,752.767761 517.403687,754.619507 
z"/>
<path fill="#FEFEFE" opacity="1.000000" stroke="none" 
	d="
M1869.060059,1153.909668 
	C1874.670166,1196.835083 1861.055176,1232.174316 1827.460815,1258.455688 
	C1791.397949,1286.668091 1750.984985,1290.416016 1710.172485,1270.840942 
	C1675.203491,1254.068604 1654.081177,1225.142212 1648.955811,1185.960449 
	C1645.009277,1155.789673 1651.421143,1127.943115 1670.357178,1103.766968 
	C1693.813843,1073.819092 1724.407471,1058.880249 1762.953735,1059.622070 
	C1811.802368,1060.561890 1851.848022,1096.208496 1864.626831,1135.075562 
	C1866.588501,1141.042114 1867.579224,1147.328125 1869.060059,1153.909668 
z"/>
<path fill="#0D0D0F" opacity="1.000000" stroke="none" 
	d="
M1420.438110,954.581604 
	C1436.504883,980.953979 1439.973389,1009.339355 1436.146729,1039.013794 
	C1432.040283,1070.858032 1417.166626,1096.455566 1391.015503,1115.228027 
	C1377.133911,1125.192871 1361.503418,1131.006714 1344.628540,1133.511108 
	C1319.294800,1137.270630 1294.377563,1136.112183 1270.826904,1125.218384 
	C1237.970947,1110.020142 1216.907593,1084.577148 1208.941895,1049.220093 
	C1201.601929,1016.639160 1204.082031,984.818115 1221.971802,955.800476 
	C1241.511963,924.105591 1270.307251,906.045654 1307.417725,902.079834 
	C1334.439819,899.192139 1360.143311,903.709106 1383.612305,918.129211 
	C1398.599487,927.337952 1410.802124,939.417053 1420.438110,954.581604 
z"/>
</svg>